<?xml version="1.0" encoding="UTF-8" standalone="no"?>
<!DOCTYPE svg PUBLIC "-//W3C//DTD SVG 1.1//EN" "http://www.w3.org/Graphics/SVG/1.1/DTD/svg11.dtd">
<svg version="1.1" xmlns="http://www.w3.org/2000/svg" xmlns:xlink="http://www.w3.org/1999/xlink" preserveAspectRatio="xMidYMid meet" viewBox="289.9344119731258 159.36180299059671 18.470000000000027 19.000000000000057" width="14.47" height="15"><defs><path d="M299.74 163.64C299.65 163.54 299.49 163.52 299.38 163.61C298.61 164.43 292.41 170.99 291.63 171.81C291.54 171.91 291.48 172.03 291.46 172.17C291.41 172.47 290.99 174.87 290.94 175.17C290.93 175.27 291 175.35 291.1 175.36C291.11 175.36 291.12 175.36 291.14 175.36C291.44 175.29 293.81 174.74 294.11 174.67C294.24 174.64 294.36 174.58 294.46 174.48C295.23 173.66 301.43 167.1 302.21 166.28C302.29 166.17 302.27 166.01 302.16 165.92C301.68 165.47 300.23 164.1 299.74 163.64Z" id="c8VnvppWQc"></path><path d="M302.98 160.44C302.87 160.34 302.7 160.33 302.59 160.43C302.43 160.59 301.17 161.81 301.01 161.96C300.89 162.08 300.88 162.27 301 162.39C301.23 162.61 303.07 164.38 303.3 164.6C303.42 164.72 303.62 164.72 303.75 164.61C303.91 164.46 305.17 163.24 305.32 163.08C305.43 162.98 305.43 162.82 305.33 162.71C304.86 162.26 303.21 160.67 302.98 160.44Z" id="a260eNZlbW"></path></defs><g><g><use xlink:href="#c8VnvppWQc" opacity="1" fill="#000000" fill-opacity="1"></use><g><use xlink:href="#c8VnvppWQc" opacity="1" fill-opacity="0" stroke="#000000" stroke-width="1" stroke-opacity="0"></use></g></g><g><use xlink:href="#a260eNZlbW" opacity="1" fill="#000000" fill-opacity="1"></use><g><use xlink:href="#a260eNZlbW" opacity="1" fill-opacity="0" stroke="#000000" stroke-width="1" stroke-opacity="0"></use></g></g></g></svg>