<?xml version="1.0" encoding="UTF-8" standalone="no"?>
<!DOCTYPE svg PUBLIC "-//W3C//DTD SVG 1.1//EN" "http://www.w3.org/Graphics/SVG/1.1/DTD/svg11.dtd">
<svg version="1.1" xmlns="http://www.w3.org/2000/svg" xmlns:xlink="http://www.w3.org/1999/xlink" preserveAspectRatio="xMidYMid meet" viewBox="199.00124806378417 185.39737184804596 14 38.47" width="10" height="34.47"><defs><path d="M210 187.74C210 187 209.4 186.4 208.65 186.4C207.92 186.4 202.08 186.4 201.35 186.4C200.6 186.4 200 187 200 187.74C200 188.47 200 194.32 200 195.05C200 195.79 200.6 196.4 201.35 196.4C202.08 196.4 207.92 196.4 208.65 196.4C209.4 196.4 210 195.79 210 195.05C210 193.59 210 188.47 210 187.74Z" id="al9FsTrYH"></path><path d="M210 199.98C210 199.24 209.4 198.63 208.65 198.63C207.92 198.63 202.08 198.63 201.35 198.63C200.6 198.63 200 199.24 200 199.98C200 200.71 200 206.55 200 207.28C200 208.03 200.6 208.63 201.35 208.63C202.08 208.63 207.92 208.63 208.65 208.63C209.4 208.63 210 208.03 210 207.28C210 205.82 210 200.71 210 199.98Z" id="a8yoYqDPR"></path><path d="M210 212.21C210 211.47 209.4 210.87 208.65 210.87C207.92 210.87 202.08 210.87 201.35 210.87C200.6 210.87 200 211.47 200 212.21C200 212.94 200 218.79 200 219.52C200 220.26 200.6 220.87 201.35 220.87C202.08 220.87 207.92 220.87 208.65 220.87C209.4 220.87 210 220.26 210 219.52C210 218.06 210 212.94 210 212.21Z" id="a2EJLHzQNN"></path></defs><g><g><use xlink:href="#al9FsTrYH" opacity="1" fill="#000000" fill-opacity="1"></use><g><use xlink:href="#al9FsTrYH" opacity="1" fill-opacity="0" stroke="#000000" stroke-width="1" stroke-opacity="0"></use></g></g><g><use xlink:href="#a8yoYqDPR" opacity="1" fill="#000000" fill-opacity="1"></use><g><use xlink:href="#a8yoYqDPR" opacity="1" fill-opacity="0" stroke="#000000" stroke-width="1" stroke-opacity="0"></use></g></g><g><use xlink:href="#a2EJLHzQNN" opacity="1" fill="#000000" fill-opacity="1"></use><g><use xlink:href="#a2EJLHzQNN" opacity="1" fill-opacity="0" stroke="#000000" stroke-width="1" stroke-opacity="0"></use></g></g></g></svg>