<?xml version="1.0" encoding="UTF-8" standalone="no"?>
<!DOCTYPE svg PUBLIC "-//W3C//DTD SVG 1.1//EN" "http://www.w3.org/Graphics/SVG/1.1/DTD/svg11.dtd">
<svg version="1.1" xmlns="http://www.w3.org/2000/svg" xmlns:xlink="http://www.w3.org/1999/xlink" preserveAspectRatio="xMidYMid meet" viewBox="0 0 640 640" width="300" height="300"><defs><path d="M204.16 137.83C204.16 130.23 204.16 126 204.16 125.16C204.16 124.52 203.64 124 203 124C202.35 124 201.83 124.52 201.83 125.16C201.83 126 201.83 130.23 201.83 137.83C194.23 137.83 190 137.83 189.16 137.83C188.52 137.83 188 138.35 188 139C188 139.64 188.52 140.16 189.16 140.16C190 140.16 194.23 140.16 201.83 140.16C201.83 147.76 201.83 151.99 201.83 152.83C201.83 153.47 202.35 154 203 154C203.64 154 204.16 153.47 204.16 152.83C204.16 151.99 204.16 147.76 204.16 140.16C211.76 140.16 215.99 140.16 216.83 140.16C217.47 140.16 218 139.64 218 139C218 138.35 217.48 137.83 216.83 137.83C215.14 137.83 210.92 137.83 204.16 137.83Z" id="b1q2B4zpCk"></path></defs><g><g><g><use xlink:href="#b1q2B4zpCk" opacity="1" fill="#000000" fill-opacity="1"></use><g><use xlink:href="#b1q2B4zpCk" opacity="1" fill-opacity="0" stroke="#000000" stroke-width="1" stroke-opacity="0"></use></g></g></g></g></svg>