<?xml version="1.0" encoding="iso-8859-1"?>
<!-- Generator: Adobe Illustrator 18.1.1, SVG Export Plug-In . SVG Version: 6.00 Build 0)  -->
<svg version="1.1" id="Capa_1" xmlns="http://www.w3.org/2000/svg" xmlns:xlink="http://www.w3.org/1999/xlink" x="0px" y="0px"
	 viewBox="0 0 198.83 198.83" style="enable-background:new 0 0 198.83 198.83;" xml:space="preserve">
<g>
	<g>
		<path style="fill:#010002;" d="M172.247,70.484v-7.19l26.584-1.235V48.721l-26.584-1.235v-5.533h-20.786V17.556
			c0-5.529-4.499-10.032-10.021-10.032H57.383c-5.529,0-10.028,4.502-10.028,10.032v24.397H26.577v5.533L0,48.721v13.338
			l26.577,1.235v7.19h20.779v15.5H26.577v5.522L0,92.744v13.331l26.577,1.242v7.19h20.779v17.161H26.577v5.533L0,138.439v13.335
			l26.577,1.238v7.19h20.779v21.083c0,5.533,4.499,10.021,10.028,10.021h84.056c5.522,0,10.021-4.488,10.021-10.021v-21.083h20.786
			v-7.19l26.584-1.238v-13.335l-26.584-1.238v-5.533h-20.786v-17.161h20.786v-7.19l26.584-1.242V92.744l-26.584-1.238v-5.522
			h-20.786v-15.5C151.461,70.484,172.247,70.484,172.247,70.484z M193.559,143.464v3.271l-26.584,1.238v6.947h-14.684v-17.984
			h14.684v5.293L193.559,143.464z M166.975,102.303v6.936h-14.684V91.252h14.684v5.297l26.584,1.238v3.282L166.975,102.303z
			 M193.559,53.756v3.275l-26.584,1.238v6.943h-14.684V47.221h14.684v5.293L193.559,53.756z M141.44,186.027H57.383
			c-2.623,0-4.756-2.133-4.756-4.749V17.556c0-2.63,2.133-4.763,4.756-4.763h84.056c2.616,0,4.749,2.133,4.749,4.763v163.722
			C146.189,183.894,144.059,186.027,141.44,186.027z M5.264,146.735v-3.271l26.584-1.238v-5.293h14.688v17.984H31.848v-6.947
			L5.264,146.735z M5.264,101.061V97.78l26.584-1.238v-5.297h14.688v17.987H31.848v-6.936L5.264,101.061z M5.264,57.031v-3.275
			l26.584-1.238v-5.293h14.688v17.991H31.848v-6.943L5.264,57.031z"/>
		<circle style="fill:#010002;" cx="65.786" cy="27.147" r="6.51"/>
	</g>
</g>
<g>
</g>
<g>
</g>
<g>
</g>
<g>
</g>
<g>
</g>
<g>
</g>
<g>
</g>
<g>
</g>
<g>
</g>
<g>
</g>
<g>
</g>
<g>
</g>
<g>
</g>
<g>
</g>
<g>
</g>
</svg>
